<mxfile host="app.diagrams.net" modified="2024-06-04T14:15:48.439Z" agent="Mozilla/5.0 (Windows NT 10.0; Win64; x64) AppleWebKit/537.36 (KHTML, like Gecko) Chrome/125.0.0.0 Safari/537.36" etag="KS8AcSbalLQ6tfHRIUlU" version="24.4.13" type="device">
  <diagram name="Trang-1" id="QEeNdbugUp-Np8DXOseP">
    <mxGraphModel dx="1687" dy="889" grid="1" gridSize="10" guides="1" tooltips="1" connect="1" arrows="1" fold="1" page="1" pageScale="1" pageWidth="827" pageHeight="1169" math="0" shadow="0">
      <root>
        <mxCell id="0" />
        <mxCell id="1" parent="0" />
        <mxCell id="hJUb73qdLH7AAH3r6oTq-2" value="&lt;div style=&quot;text-align: left;&quot;&gt;&lt;font face=&quot;Roboto Flex&quot; color=&quot;#222222&quot;&gt;&lt;span style=&quot;font-size: 16px; background-color: rgb(255, 255, 255);&quot;&gt;users&lt;/span&gt;&lt;/font&gt;&lt;/div&gt;" style="rounded=0;whiteSpace=wrap;html=1;" vertex="1" parent="1">
          <mxGeometry x="324" y="170" width="120" height="60" as="geometry" />
        </mxCell>
        <mxCell id="hJUb73qdLH7AAH3r6oTq-3" value="&lt;span style=&quot;color: rgb(34, 34, 34); font-family: &amp;quot;Roboto Flex&amp;quot;; font-size: 16px; text-align: left; background-color: rgb(255, 255, 255);&quot;&gt;product&lt;/span&gt;" style="rounded=0;whiteSpace=wrap;html=1;" vertex="1" parent="1">
          <mxGeometry x="320" y="680" width="120" height="60" as="geometry" />
        </mxCell>
        <mxCell id="hJUb73qdLH7AAH3r6oTq-4" value="CÃ³" style="rhombus;whiteSpace=wrap;html=1;" vertex="1" parent="1">
          <mxGeometry x="337" y="280" width="80" height="80" as="geometry" />
        </mxCell>
        <mxCell id="hJUb73qdLH7AAH3r6oTq-7" value="&lt;u&gt;userId&lt;/u&gt;" style="ellipse;whiteSpace=wrap;html=1;" vertex="1" parent="1">
          <mxGeometry y="40" width="120" height="80" as="geometry" />
        </mxCell>
        <mxCell id="hJUb73qdLH7AAH3r6oTq-8" value="name" style="ellipse;whiteSpace=wrap;html=1;" vertex="1" parent="1">
          <mxGeometry x="154" y="40" width="120" height="80" as="geometry" />
        </mxCell>
        <mxCell id="hJUb73qdLH7AAH3r6oTq-9" value="dateOfBirth" style="ellipse;whiteSpace=wrap;html=1;" vertex="1" parent="1">
          <mxGeometry x="590" y="50" width="120" height="80" as="geometry" />
        </mxCell>
        <mxCell id="hJUb73qdLH7AAH3r6oTq-11" value="" style="endArrow=none;html=1;rounded=0;exitX=0.25;exitY=0;exitDx=0;exitDy=0;entryX=0.562;entryY=0.99;entryDx=0;entryDy=0;entryPerimeter=0;" edge="1" parent="1" source="hJUb73qdLH7AAH3r6oTq-2" target="hJUb73qdLH7AAH3r6oTq-7">
          <mxGeometry width="50" height="50" relative="1" as="geometry">
            <mxPoint x="394" y="170" as="sourcePoint" />
            <mxPoint x="214" y="130" as="targetPoint" />
          </mxGeometry>
        </mxCell>
        <mxCell id="hJUb73qdLH7AAH3r6oTq-12" value="&lt;span style=&quot;color: rgb(34, 34, 34); font-family: &amp;quot;Roboto Flex&amp;quot;; font-size: 16px; text-align: left; background-color: rgb(255, 255, 255);&quot;&gt;&lt;u&gt;productId&lt;/u&gt;&lt;/span&gt;" style="ellipse;whiteSpace=wrap;html=1;" vertex="1" parent="1">
          <mxGeometry x="130" y="830" width="120" height="80" as="geometry" />
        </mxCell>
        <mxCell id="hJUb73qdLH7AAH3r6oTq-13" value="name" style="ellipse;whiteSpace=wrap;html=1;" vertex="1" parent="1">
          <mxGeometry x="270" y="830" width="120" height="80" as="geometry" />
        </mxCell>
        <mxCell id="hJUb73qdLH7AAH3r6oTq-14" value="price" style="ellipse;whiteSpace=wrap;html=1;" vertex="1" parent="1">
          <mxGeometry x="420" y="830" width="120" height="80" as="geometry" />
        </mxCell>
        <mxCell id="hJUb73qdLH7AAH3r6oTq-15" value="stoke" style="ellipse;whiteSpace=wrap;html=1;" vertex="1" parent="1">
          <mxGeometry x="590" y="830" width="120" height="80" as="geometry" />
        </mxCell>
        <mxCell id="hJUb73qdLH7AAH3r6oTq-16" value="" style="endArrow=none;html=1;rounded=0;entryX=0.5;entryY=0;entryDx=0;entryDy=0;exitX=0;exitY=1;exitDx=0;exitDy=0;" edge="1" parent="1" source="hJUb73qdLH7AAH3r6oTq-3" target="hJUb73qdLH7AAH3r6oTq-12">
          <mxGeometry width="50" height="50" relative="1" as="geometry">
            <mxPoint x="260.03999999999996" y="808" as="sourcePoint" />
            <mxPoint x="189.04" y="800" as="targetPoint" />
          </mxGeometry>
        </mxCell>
        <mxCell id="hJUb73qdLH7AAH3r6oTq-17" value="" style="endArrow=none;html=1;rounded=0;entryX=0.5;entryY=0;entryDx=0;entryDy=0;exitX=0.5;exitY=1;exitDx=0;exitDy=0;" edge="1" parent="1" source="hJUb73qdLH7AAH3r6oTq-3" target="hJUb73qdLH7AAH3r6oTq-13">
          <mxGeometry width="50" height="50" relative="1" as="geometry">
            <mxPoint x="395" y="760" as="sourcePoint" />
            <mxPoint x="265" y="850" as="targetPoint" />
          </mxGeometry>
        </mxCell>
        <mxCell id="hJUb73qdLH7AAH3r6oTq-18" value="" style="endArrow=none;html=1;rounded=0;entryX=0.5;entryY=0;entryDx=0;entryDy=0;" edge="1" parent="1" target="hJUb73qdLH7AAH3r6oTq-14">
          <mxGeometry width="50" height="50" relative="1" as="geometry">
            <mxPoint x="400" y="740" as="sourcePoint" />
            <mxPoint x="410" y="860" as="targetPoint" />
          </mxGeometry>
        </mxCell>
        <mxCell id="hJUb73qdLH7AAH3r6oTq-19" value="" style="endArrow=none;html=1;rounded=0;entryX=1;entryY=1;entryDx=0;entryDy=0;exitX=0;exitY=0.5;exitDx=0;exitDy=0;" edge="1" parent="1" source="hJUb73qdLH7AAH3r6oTq-15" target="hJUb73qdLH7AAH3r6oTq-3">
          <mxGeometry width="50" height="50" relative="1" as="geometry">
            <mxPoint x="570" y="660" as="sourcePoint" />
            <mxPoint x="440" y="750" as="targetPoint" />
          </mxGeometry>
        </mxCell>
        <mxCell id="hJUb73qdLH7AAH3r6oTq-20" value="address" style="ellipse;whiteSpace=wrap;html=1;" vertex="1" parent="1">
          <mxGeometry x="294" y="40" width="120" height="80" as="geometry" />
        </mxCell>
        <mxCell id="hJUb73qdLH7AAH3r6oTq-21" value="" style="endArrow=none;html=1;rounded=0;exitX=0.5;exitY=1;exitDx=0;exitDy=0;entryX=1;entryY=0;entryDx=0;entryDy=0;" edge="1" parent="1" source="hJUb73qdLH7AAH3r6oTq-9" target="hJUb73qdLH7AAH3r6oTq-2">
          <mxGeometry width="50" height="50" relative="1" as="geometry">
            <mxPoint x="689" y="178.96" as="sourcePoint" />
            <mxPoint x="474" y="139.96" as="targetPoint" />
          </mxGeometry>
        </mxCell>
        <mxCell id="hJUb73qdLH7AAH3r6oTq-22" value="" style="endArrow=none;html=1;rounded=0;exitX=0.4;exitY=-0.017;exitDx=0;exitDy=0;entryX=0.5;entryY=1;entryDx=0;entryDy=0;exitPerimeter=0;" edge="1" parent="1" source="hJUb73qdLH7AAH3r6oTq-2" target="hJUb73qdLH7AAH3r6oTq-8">
          <mxGeometry width="50" height="50" relative="1" as="geometry">
            <mxPoint x="385" y="158.96" as="sourcePoint" />
            <mxPoint x="100" y="109.96000000000001" as="targetPoint" />
          </mxGeometry>
        </mxCell>
        <mxCell id="hJUb73qdLH7AAH3r6oTq-24" value="" style="endArrow=none;html=1;rounded=0;exitX=0.5;exitY=1;exitDx=0;exitDy=0;entryX=0.75;entryY=0;entryDx=0;entryDy=0;" edge="1" parent="1" source="hJUb73qdLH7AAH3r6oTq-25" target="hJUb73qdLH7AAH3r6oTq-2">
          <mxGeometry width="50" height="50" relative="1" as="geometry">
            <mxPoint x="598" y="120" as="sourcePoint" />
            <mxPoint x="400" y="158" as="targetPoint" />
          </mxGeometry>
        </mxCell>
        <mxCell id="hJUb73qdLH7AAH3r6oTq-25" value="phone" style="ellipse;whiteSpace=wrap;html=1;" vertex="1" parent="1">
          <mxGeometry x="450" y="40" width="120" height="80" as="geometry" />
        </mxCell>
        <mxCell id="hJUb73qdLH7AAH3r6oTq-27" value="" style="endArrow=none;html=1;rounded=0;exitX=0.5;exitY=0;exitDx=0;exitDy=0;entryX=0.5;entryY=1;entryDx=0;entryDy=0;" edge="1" parent="1" source="hJUb73qdLH7AAH3r6oTq-2" target="hJUb73qdLH7AAH3r6oTq-20">
          <mxGeometry width="50" height="50" relative="1" as="geometry">
            <mxPoint x="433" y="169" as="sourcePoint" />
            <mxPoint x="275" y="120" as="targetPoint" />
          </mxGeometry>
        </mxCell>
        <mxCell id="hJUb73qdLH7AAH3r6oTq-28" value="status" style="ellipse;whiteSpace=wrap;html=1;" vertex="1" parent="1">
          <mxGeometry x="680" y="170" width="120" height="80" as="geometry" />
        </mxCell>
        <mxCell id="hJUb73qdLH7AAH3r6oTq-29" value="" style="endArrow=none;html=1;rounded=0;exitX=0;exitY=0.5;exitDx=0;exitDy=0;entryX=1;entryY=0.5;entryDx=0;entryDy=0;" edge="1" parent="1" source="hJUb73qdLH7AAH3r6oTq-28" target="hJUb73qdLH7AAH3r6oTq-2">
          <mxGeometry width="50" height="50" relative="1" as="geometry">
            <mxPoint x="648" y="170" as="sourcePoint" />
            <mxPoint x="450" y="208" as="targetPoint" />
          </mxGeometry>
        </mxCell>
        <mxCell id="hJUb73qdLH7AAH3r6oTq-30" value="" style="rounded=0;whiteSpace=wrap;html=1;" vertex="1" parent="1">
          <mxGeometry x="310" y="410" width="130" height="70" as="geometry" />
        </mxCell>
        <mxCell id="hJUb73qdLH7AAH3r6oTq-34" value="&lt;span style=&quot;color: rgb(34, 34, 34); font-family: &amp;quot;Roboto Flex&amp;quot;; font-size: 16px; text-align: left; background-color: rgb(255, 255, 255);&quot;&gt;shopping_cart&lt;/span&gt;" style="rounded=0;whiteSpace=wrap;html=1;" vertex="1" parent="1">
          <mxGeometry x="323" y="419" width="100" height="50" as="geometry" />
        </mxCell>
        <mxCell id="hJUb73qdLH7AAH3r6oTq-43" value="" style="endArrow=classic;html=1;rounded=0;exitX=0.5;exitY=1;exitDx=0;exitDy=0;entryX=0.5;entryY=0;entryDx=0;entryDy=0;" edge="1" parent="1" source="hJUb73qdLH7AAH3r6oTq-4" target="hJUb73qdLH7AAH3r6oTq-30">
          <mxGeometry width="50" height="50" relative="1" as="geometry">
            <mxPoint x="550" y="340" as="sourcePoint" />
            <mxPoint x="600" y="290" as="targetPoint" />
          </mxGeometry>
        </mxCell>
        <mxCell id="hJUb73qdLH7AAH3r6oTq-44" value="N" style="edgeLabel;html=1;align=center;verticalAlign=middle;resizable=0;points=[];" vertex="1" connectable="0" parent="hJUb73qdLH7AAH3r6oTq-43">
          <mxGeometry x="-0.0955" y="-3" relative="1" as="geometry">
            <mxPoint as="offset" />
          </mxGeometry>
        </mxCell>
        <mxCell id="hJUb73qdLH7AAH3r6oTq-46" value="CÃ³" style="rhombus;whiteSpace=wrap;html=1;" vertex="1" parent="1">
          <mxGeometry x="337" y="530" width="80" height="80" as="geometry" />
        </mxCell>
        <mxCell id="hJUb73qdLH7AAH3r6oTq-47" value="" style="endArrow=classic;html=1;rounded=0;exitX=0.5;exitY=0;exitDx=0;exitDy=0;entryX=0.5;entryY=1;entryDx=0;entryDy=0;" edge="1" parent="1" source="hJUb73qdLH7AAH3r6oTq-3" target="hJUb73qdLH7AAH3r6oTq-46">
          <mxGeometry width="50" height="50" relative="1" as="geometry">
            <mxPoint x="550" y="340" as="sourcePoint" />
            <mxPoint x="600" y="290" as="targetPoint" />
          </mxGeometry>
        </mxCell>
        <mxCell id="hJUb73qdLH7AAH3r6oTq-50" value="1" style="edgeLabel;html=1;align=center;verticalAlign=middle;resizable=0;points=[];" vertex="1" connectable="0" parent="hJUb73qdLH7AAH3r6oTq-47">
          <mxGeometry x="0.012" y="2" relative="1" as="geometry">
            <mxPoint as="offset" />
          </mxGeometry>
        </mxCell>
        <mxCell id="hJUb73qdLH7AAH3r6oTq-48" value="" style="endArrow=classic;html=1;rounded=0;exitX=0.5;exitY=0;exitDx=0;exitDy=0;entryX=0.5;entryY=1;entryDx=0;entryDy=0;" edge="1" parent="1" source="hJUb73qdLH7AAH3r6oTq-46" target="hJUb73qdLH7AAH3r6oTq-30">
          <mxGeometry width="50" height="50" relative="1" as="geometry">
            <mxPoint x="550" y="340" as="sourcePoint" />
            <mxPoint x="600" y="290" as="targetPoint" />
          </mxGeometry>
        </mxCell>
        <mxCell id="hJUb73qdLH7AAH3r6oTq-49" value="N" style="edgeLabel;html=1;align=center;verticalAlign=middle;resizable=0;points=[];" vertex="1" connectable="0" parent="hJUb73qdLH7AAH3r6oTq-48">
          <mxGeometry x="-0.2691" y="1" relative="1" as="geometry">
            <mxPoint as="offset" />
          </mxGeometry>
        </mxCell>
        <mxCell id="hJUb73qdLH7AAH3r6oTq-51" value="" style="endArrow=classic;html=1;rounded=0;exitX=0.5;exitY=1;exitDx=0;exitDy=0;" edge="1" parent="1" source="hJUb73qdLH7AAH3r6oTq-2" target="hJUb73qdLH7AAH3r6oTq-4">
          <mxGeometry width="50" height="50" relative="1" as="geometry">
            <mxPoint x="550" y="440" as="sourcePoint" />
            <mxPoint x="600" y="390" as="targetPoint" />
          </mxGeometry>
        </mxCell>
        <mxCell id="hJUb73qdLH7AAH3r6oTq-52" value="1" style="edgeLabel;html=1;align=center;verticalAlign=middle;resizable=0;points=[];" vertex="1" connectable="0" parent="hJUb73qdLH7AAH3r6oTq-51">
          <mxGeometry x="-0.1237" y="-2" relative="1" as="geometry">
            <mxPoint as="offset" />
          </mxGeometry>
        </mxCell>
        <mxCell id="hJUb73qdLH7AAH3r6oTq-53" value="status" style="ellipse;whiteSpace=wrap;html=1;" vertex="1" parent="1">
          <mxGeometry x="606" y="710" width="120" height="80" as="geometry" />
        </mxCell>
        <mxCell id="hJUb73qdLH7AAH3r6oTq-54" value="" style="endArrow=none;html=1;rounded=0;entryX=0;entryY=0.5;entryDx=0;entryDy=0;exitX=1;exitY=0.5;exitDx=0;exitDy=0;" edge="1" parent="1" source="hJUb73qdLH7AAH3r6oTq-3" target="hJUb73qdLH7AAH3r6oTq-53">
          <mxGeometry width="50" height="50" relative="1" as="geometry">
            <mxPoint x="550" y="740" as="sourcePoint" />
            <mxPoint x="600" y="690" as="targetPoint" />
          </mxGeometry>
        </mxCell>
        <mxCell id="hJUb73qdLH7AAH3r6oTq-55" value="&lt;u&gt;id&lt;/u&gt;" style="ellipse;whiteSpace=wrap;html=1;" vertex="1" parent="1">
          <mxGeometry x="520" y="324" width="120" height="80" as="geometry" />
        </mxCell>
        <mxCell id="hJUb73qdLH7AAH3r6oTq-56" value="quantity" style="ellipse;whiteSpace=wrap;html=1;" vertex="1" parent="1">
          <mxGeometry x="530" y="484" width="120" height="80" as="geometry" />
        </mxCell>
        <mxCell id="hJUb73qdLH7AAH3r6oTq-60" value="" style="endArrow=none;html=1;rounded=0;exitX=0;exitY=0.5;exitDx=0;exitDy=0;" edge="1" parent="1" source="hJUb73qdLH7AAH3r6oTq-56">
          <mxGeometry width="50" height="50" relative="1" as="geometry">
            <mxPoint x="240" y="468.96" as="sourcePoint" />
            <mxPoint x="440" y="440" as="targetPoint" />
          </mxGeometry>
        </mxCell>
        <mxCell id="hJUb73qdLH7AAH3r6oTq-63" value="" style="endArrow=none;html=1;rounded=0;entryX=1;entryY=0.25;entryDx=0;entryDy=0;" edge="1" parent="1" source="hJUb73qdLH7AAH3r6oTq-55" target="hJUb73qdLH7AAH3r6oTq-30">
          <mxGeometry width="50" height="50" relative="1" as="geometry">
            <mxPoint x="540" y="464" as="sourcePoint" />
            <mxPoint x="450" y="380" as="targetPoint" />
          </mxGeometry>
        </mxCell>
        <mxCell id="hJUb73qdLH7AAH3r6oTq-64" value="" style="endArrow=none;html=1;rounded=0;entryX=1;entryY=0.5;entryDx=0;entryDy=0;exitX=-0.008;exitY=0.386;exitDx=0;exitDy=0;exitPerimeter=0;" edge="1" parent="1" source="hJUb73qdLH7AAH3r6oTq-30" target="hJUb73qdLH7AAH3r6oTq-66">
          <mxGeometry width="50" height="50" relative="1" as="geometry">
            <mxPoint x="280" y="377.5" as="sourcePoint" />
            <mxPoint x="190" y="419.5" as="targetPoint" />
          </mxGeometry>
        </mxCell>
        <mxCell id="hJUb73qdLH7AAH3r6oTq-66" value="user" style="ellipse;whiteSpace=wrap;html=1;" vertex="1" parent="1">
          <mxGeometry x="60" y="360" width="120" height="80" as="geometry" />
        </mxCell>
        <mxCell id="hJUb73qdLH7AAH3r6oTq-67" value="&lt;span style=&quot;color: rgb(34, 34, 34); text-align: left; background-color: rgb(255, 255, 255);&quot;&gt;&lt;font style=&quot;font-size: 12px;&quot; face=&quot;Helvetica&quot;&gt;product&lt;/font&gt;&lt;/span&gt;" style="ellipse;whiteSpace=wrap;html=1;" vertex="1" parent="1">
          <mxGeometry x="60" y="510" width="120" height="80" as="geometry" />
        </mxCell>
        <mxCell id="hJUb73qdLH7AAH3r6oTq-69" value="" style="endArrow=none;html=1;rounded=0;exitX=0.981;exitY=0.601;exitDx=0;exitDy=0;exitPerimeter=0;" edge="1" parent="1" source="hJUb73qdLH7AAH3r6oTq-67">
          <mxGeometry width="50" height="50" relative="1" as="geometry">
            <mxPoint x="144" y="820" as="sourcePoint" />
            <mxPoint x="310" y="460" as="targetPoint" />
          </mxGeometry>
        </mxCell>
      </root>
    </mxGraphModel>
  </diagram>
</mxfile>
